<?xml version="1.0" encoding="UTF-8" standalone="no"?>
<!-- Created with Inkscape (http://www.inkscape.org/) -->

<svg
   width="1000mm"
   height="1000mm"
   viewBox="0 0 1000 1000"
   version="1.1"
   id="svg5"
   inkscape:export-filename="fidankaLogoNoWord.png"
   inkscape:export-xdpi="96"
   inkscape:export-ydpi="96"
   inkscape:version="1.2.2 (b0a8486541, 2022-12-01)"
   sodipodi:docname="logo.svg"
   xmlns:inkscape="http://www.inkscape.org/namespaces/inkscape"
   xmlns:sodipodi="http://sodipodi.sourceforge.net/DTD/sodipodi-0.dtd"
   xmlns="http://www.w3.org/2000/svg"
   xmlns:svg="http://www.w3.org/2000/svg">
  <sodipodi:namedview
     id="namedview7"
     pagecolor="#ffffff"
     bordercolor="#000000"
     borderopacity="0.25"
     inkscape:showpageshadow="2"
     inkscape:pageopacity="0.0"
     inkscape:pagecheckerboard="0"
     inkscape:deskcolor="#d1d1d1"
     inkscape:document-units="mm"
     showgrid="false"
     inkscape:zoom="0.2186584"
     inkscape:cx="4065.7025"
     inkscape:cy="1719.5772"
     inkscape:window-width="2559"
     inkscape:window-height="1370"
     inkscape:window-x="1280"
     inkscape:window-y="32"
     inkscape:window-maximized="0"
     inkscape:current-layer="layer1" />
  <defs
     id="defs2">
    <marker
       style="overflow:visible"
       id="Dot"
       refX="0"
       refY="0"
       orient="auto"
       inkscape:stockid="Dot"
       markerWidth="1"
       markerHeight="1"
       viewBox="0 0 5.6666667 5.6666667"
       inkscape:isstock="true"
       inkscape:collect="always"
       preserveAspectRatio="xMidYMid">
      <path
         transform="scale(0.5)"
         style="fill:context-stroke;fill-rule:evenodd;stroke:context-stroke;stroke-width:1pt"
         d="M 5,0 C 5,2.76 2.76,5 0,5 -2.76,5 -5,2.76 -5,0 c 0,-2.76 2.3,-5 5,-5 2.76,0 5,2.24 5,5 z"
         id="Dot1"
         sodipodi:nodetypes="sssss" />
    </marker>
    <marker
       style="overflow:visible"
       id="RoundedArrow"
       refX="0"
       refY="0"
       orient="auto-start-reverse"
       inkscape:stockid="RoundedArrow"
       markerWidth="2.135"
       markerHeight="2.063915"
       viewBox="0 0 6.1347524 5.9304951"
       inkscape:isstock="true"
       inkscape:collect="always"
       preserveAspectRatio="xMidYMid">
      <path
         transform="scale(0.7)"
         d="m -0.21114562,-4.1055728 6.42229122,3.21114561 a 1,1 90 0 1 0,1.78885438 L -0.21114562,4.1055728 A 1.236068,1.236068 31.717474 0 1 -2,3 v -6 a 1.236068,1.236068 148.28253 0 1 1.78885438,-1.1055728 z"
         style="fill:context-stroke;fill-rule:evenodd;stroke:none"
         id="path1367" />
    </marker>
  </defs>
  <g
     inkscape:label="Layer 1"
     inkscape:groupmode="layer"
     id="layer1">
    <circle
       style="display:inline;fill:#000000;fill-opacity:1;stroke:#a2a2a2;stroke-width:0.292518"
       id="path1518"
       cx="506.88321"
       cy="484.21066"
       r="427.69003" />
    <path
       style="fill:none;fill-opacity:1;stroke:#de9f00;stroke-width:20;stroke-dasharray:none;stroke-opacity:1;marker-start:url(#RoundedArrow);marker-end:url(#Dot)"
       d="m 726.29429,179.48074 c -21.77018,79.037 -22.57477,156.28359 -69.37288,187.23494 -30.64045,20.26499 -124.01882,26.95278 -170.14661,34.10557 -221.42216,34.33479 -381.02248,74.68606 -22.44539,274.93474 147.35945,81.85678 184.75072,89.53617 270.43447,149.65105"
       id="path7069"
       sodipodi:nodetypes="csscc" />
    <path
       sodipodi:type="star"
       style="fill:none;fill-opacity:1;stroke:#ffffff;stroke-width:20;stroke-dasharray:none;stroke-opacity:1"
       id="path8658"
       inkscape:flatsided="false"
       sodipodi:sides="15"
       sodipodi:cx="394.19434"
       sodipodi:cy="225.18571"
       sodipodi:r1="6.4772401"
       sodipodi:r2="1.8136272"
       sodipodi:arg1="0.74194642"
       sodipodi:arg2="0.95138593"
       inkscape:rounded="0"
       inkscape:randomized="0.1"
       d="m 398.80834,229.38834 -4.14068,-3.30888 2.04736,5.30448 -2.27452,-4.79858 -0.25888,5.24938 -0.24055,-4.96638 -2.74298,4.62793 1.71411,-4.56625 -4.20895,2.44649 4.06467,-2.98233 -4.46566,1.29101 4.284,-2.21442 -4.92573,-0.91628 4.44465,0.54525 -3.2047,-3.80784 4.54684,2.81309 -3.13757,-3.71988 3.18538,3.50787 -0.91573,-4.89163 1.5786,4.51768 1.95696,-5.14317 -1.5073,4.89384 2.9469,-3.75875 -1.65545,4.32348 4.19717,-1.64601 -3.74572,2.53272 3.80858,-0.68759 -4.05317,1.14897 4.14,2.42261 -3.94499,-1.95705 z"
       inkscape:transform-center-x="0.10197027"
       inkscape:transform-center-y="-0.12213248"
       transform="translate(243.24187,219.36001)" />
    <path
       sodipodi:type="star"
       style="fill:none;fill-opacity:1;stroke:#ffffff;stroke-width:20;stroke-dasharray:none;stroke-opacity:1"
       id="path8660"
       inkscape:flatsided="false"
       sodipodi:sides="15"
       sodipodi:cx="476.16043"
       sodipodi:cy="305.95813"
       sodipodi:r1="1.6404977"
       sodipodi:r2="0.45933935"
       sodipodi:arg1="0.24497866"
       sodipodi:arg2="0.45441817"
       inkscape:rounded="0"
       inkscape:randomized="0.1"
       d="m 477.75103,306.23059 -1.05157,0.0498 0.64617,0.67167 -0.74599,-0.73878 0.34711,1.28561 -0.70257,-1.0744 0.068,1.14212 -0.19568,-1.2514 -0.37177,1.27052 0.12154,-1.21172 -0.98145,0.63448 0.80071,-0.95595 -1.07413,0.51265 1.10085,-0.6899 -1.21903,0.0215 1.33186,-0.17673 -1.24872,-0.56114 1.17164,0.54615 -0.57484,-0.90865 0.79371,0.82011 -0.23643,-1.33834 0.56161,1.0748 0.0995,-1.14001 0.009,1.39547 0.65582,-1.09666 -0.62929,1.25113 1.18108,-0.58897 -0.95829,0.56492 1.25703,-0.22155 -1.24336,0.39161 z"
       inkscape:transform-center-x="-0.059339553"
       inkscape:transform-center-y="0.0066224592"
       transform="translate(137.10003,7.9606534)" />
    <path
       sodipodi:type="star"
       style="fill:none;fill-opacity:1;stroke:#ffffff;stroke-width:20;stroke-dasharray:none;stroke-opacity:1"
       id="path8662"
       inkscape:flatsided="false"
       sodipodi:sides="15"
       sodipodi:cx="323.16409"
       sodipodi:cy="493.44916"
       sodipodi:r1="6.3081656"
       sodipodi:r2="1.7662864"
       sodipodi:arg1="1.1071375"
       sodipodi:arg2="1.316577"
       inkscape:rounded="0"
       inkscape:randomized="0.1"
       d="m 325.65539,499.66855 -1.54861,-4.43525 -0.85068,4.36965 -0.66239,-4.27014 -1.79997,4.59046 1.68125,-5.41487 -3.1809,2.741 2.42291,-2.63167 -4.88405,1.15337 4.18644,-2.35952 -4.27849,-0.76203 4.49529,0.39885 -3.15027,-1.93836 4.29667,1.25695 -2.59266,-3.77423 2.64698,2.9444 -1.22815,-4.26637 2.34691,3.79509 1.26675,-3.4766 -1.20519,4.40685 3.24405,-4.07681 -1.98854,4.52938 3.66846,-2.78658 -3.23504,2.71988 4.56008,0.0494 -4.49309,0.56118 3.24427,1.5907 -3.60635,-0.2158 3.28483,3.36925 -4.04643,-2.85667 z"
       inkscape:transform-center-x="0.13076717"
       inkscape:transform-center-y="-0.015909032" />
    <path
       sodipodi:type="star"
       style="fill:none;fill-opacity:1;stroke:#ffffff;stroke-width:20;stroke-dasharray:none;stroke-opacity:1"
       id="path8664"
       inkscape:flatsided="false"
       sodipodi:sides="15"
       sodipodi:cx="252.63635"
       sodipodi:cy="589.36676"
       sodipodi:r1="16.985361"
       sodipodi:r2="4.7559013"
       sodipodi:arg1="0.72663809"
       sodipodi:arg2="0.9360776"
       inkscape:rounded="0"
       inkscape:randomized="0.1"
       d="m 264.37154,600.42207 -9.4521,-6.65755 5.06022,10.08458 -5.70529,-10.54006 -2.9621,11.40869 -0.89213,-11.36496 -3.31203,10.08951 4.21771,-9.22529 -10.99297,7.73086 7.28303,-10.88472 -12.63779,5.03621 11.84305,-7.07555 -9.64767,-1.13711 9.91918,0.77345 -10.53948,-9.07067 12.04076,6.46712 -4.44901,-12.03621 6.61547,9.99531 -2.25847,-11.72684 5.23371,13.21741 2.38653,-11.44162 -1.70441,12.21881 7.35393,-9.53184 -4.45297,10.2973 8.92676,-5.4975 -9.78769,6.60435 13.26486,-0.79469 -11.2275,1.60069 11.35238,5.90232 -12.27423,-2.94609 z"
       inkscape:transform-center-x="-0.93196786"
       inkscape:transform-center-y="1.5203352"
       transform="translate(-7.0760702,-19.459342)" />
    <path
       sodipodi:type="star"
       style="fill:none;fill-opacity:1;stroke:#ffffff;stroke-width:20;stroke-dasharray:none;stroke-opacity:1"
       id="path8668"
       inkscape:flatsided="false"
       sodipodi:sides="15"
       sodipodi:cx="747.74042"
       sodipodi:cy="252.24461"
       sodipodi:r1="7.0528226"
       sodipodi:r2="1.9747905"
       sodipodi:arg1="1.5707963"
       sodipodi:arg2="1.7802358"
       inkscape:rounded="0"
       inkscape:randomized="0.1"
       d="m 747.60099,258.92511 -0.95369,-4.5162 -1.34686,4.20085 1.17734,-4.57282 -3.59769,2.74492 2.70927,-3.74074 -5.04541,1.51012 4.75555,-2.07828 -4.72135,-0.73765 5.60058,0.18157 -4.13129,-3.19886 4.46572,2.46629 -2.23236,-5.1357 2.07761,3.69718 0.22354,-3.75521 1.02852,4.30607 1.71435,-5.05925 -0.61465,5.59636 2.99553,-4.11646 -2.29521,3.6054 4.17194,-2.04611 -4.61282,3.64888 6.08914,-0.62978 -5.76635,0.75166 5.81099,2.17181 -6.24921,-0.8455 4.50795,3.06979 -3.90868,-3.16059 1.70261,5.88173 -3.2807,-4.53655 z"
       inkscape:transform-center-x="-0.28839723"
       inkscape:transform-center-y="0.094239964" />
    <path
       sodipodi:type="star"
       style="fill:none;fill-opacity:1;stroke:#ffffff;stroke-width:20;stroke-dasharray:none;stroke-opacity:1"
       id="path8670"
       inkscape:flatsided="false"
       sodipodi:sides="15"
       sodipodi:cx="674.39185"
       sodipodi:cy="727.60095"
       sodipodi:r1="9.0319481"
       sodipodi:r2="2.5289459"
       sodipodi:arg1="-0.67474504"
       sodipodi:arg2="-0.46530553"
       inkscape:rounded="0"
       inkscape:randomized="0.1"
       d="m 682.24108,721.38229 -5.63662,5.06015 6.71417,-1.40354 -6.74744,2.2101 7.54724,2.28636 -7.13243,-0.69036 5.20724,3.5669 -5.52549,-2.36205 3.4044,5.3888 -5.39391,-5.51679 1.96439,6.08853 -1.77277,-5.84165 -3.57346,6.85022 1.99489,-7.20559 -3.81912,4.25884 3.36055,-5.51526 -5.66367,3.21152 4.54893,-3.78679 -6.48025,-0.38912 7.49921,-0.64027 -6.46375,-2.57719 5.9817,2.46287 -3.51755,-5.16561 5.13125,3.06408 -2.77162,-5.64164 2.91276,6.13582 0.75387,-5.92059 0.94864,5.41446 3.20111,-5.43794 -2.2324,6.63928 z"
       inkscape:transform-center-x="-0.1731687"
       inkscape:transform-center-y="0.31630299"
       transform="translate(43.341451,-14.152339)" />
    <path
       sodipodi:type="star"
       style="fill:none;fill-opacity:1;stroke:#ffffff;stroke-width:20;stroke-dasharray:none;stroke-opacity:1"
       id="path8672"
       inkscape:flatsided="false"
       sodipodi:sides="15"
       sodipodi:cx="527.69427"
       sodipodi:cy="655.66272"
       sodipodi:r1="13.892188"
       sodipodi:r2="3.8898134"
       sodipodi:arg1="1.1525836"
       sodipodi:arg2="1.3620231"
       inkscape:rounded="0"
       inkscape:randomized="0.1"
       d="m 533.86513,667.06982 -4.72797,-7.12194 -1.80128,9.05737 0.26109,-8.44764 -5.38429,8.12577 4.23584,-10.65165 -9.63004,6.09234 6.47717,-7.05881 -8.0217,2.08087 8.43036,-2.16849 -9.27063,-3.27048 9.68504,2.13146 -7.22226,-6.15216 7.03369,4.3599 -3.04877,-9.21811 5.37339,6.02598 -1.95182,-10.12377 3.73456,11.00328 2.44507,-9.38442 0.0278,10.86809 4.35885,-8.95835 -5.10685,9.26493 10.689,-6.15647 -8.39587,6.3405 8.58288,-0.096 -9.65506,2.94844 8.65076,2.50898 -7.43038,-0.61837 4.85956,6.47196 -8.30542,-6.8695 z"
       inkscape:transform-center-x="0.63103431"
       inkscape:transform-center-y="-0.50550781"
       transform="translate(-3.5381347,-17.690275)" />
    <path
       sodipodi:type="star"
       style="fill:none;fill-opacity:1;stroke:#ffffff;stroke-width:20;stroke-dasharray:none;stroke-opacity:1"
       id="path8674"
       inkscape:flatsided="false"
       sodipodi:sides="15"
       sodipodi:cx="397.92346"
       sodipodi:cy="596.41956"
       sodipodi:r1="8.9209929"
       sodipodi:r2="2.4978788"
       sodipodi:arg1="0.32176176"
       sodipodi:arg2="0.53120127"
       inkscape:rounded="0"
       inkscape:randomized="0.1"
       d="m 406.55847,599.48995 -5.62994,-2.24133 4.31761,4.71951 -6.57014,-2.96631 3.69187,5.27402 -4.012,-4.87567 -1.12502,6.47943 0.49952,-7.17206 -3.05106,5.91589 0.9169,-5.43573 -4.6804,2.95183 4.91713,-5.27845 -7.24823,3.0101 7.40463,-3.0775 -6.66036,-0.66159 6.77394,-0.3023 -5.15996,-3.11136 5.30095,1.311 -3.08603,-4.67646 3.47194,5.42757 -0.69884,-6.94044 1.76054,6.50026 1.97726,-5.84315 -0.50148,6.30731 3.1743,-6.0595 -2.06833,6.62791 5.85579,-2.67091 -6.63131,2.19041 6.96973,0.6036 -6.91127,1.01383 z"
       inkscape:transform-center-x="-0.33401599"
       inkscape:transform-center-y="-0.1758523" />
    <path
       sodipodi:type="star"
       style="fill:none;fill-opacity:1;stroke:#ffffff;stroke-width:20;stroke-dasharray:none;stroke-opacity:1"
       id="path8676"
       inkscape:flatsided="false"
       sodipodi:sides="15"
       sodipodi:cx="447.29266"
       sodipodi:cy="554.10291"
       sodipodi:r1="9.4623899"
       sodipodi:r2="2.6494701"
       sodipodi:arg1="1.1071263"
       sodipodi:arg2="1.3165658"
       inkscape:rounded="0"
       inkscape:randomized="0.1"
       d="m 451.48673,563.28885 -4.01765,-5.94298 0.71431,6.59244 -0.83084,-7.39449 -2.57348,5.6831 1.6227,-6.71441 -6.2416,5.95147 4.54959,-6.17003 -6.55643,2.91974 6.17851,-3.65313 -7.31858,-1.17903 8.19746,-0.42368 -5.73896,-3.65661 6.54125,2.74225 -4.75788,-5.89387 4.12343,5.30582 -0.31673,-7.06129 1.2594,6.44776 2.57812,-6.66032 -0.70744,7.85989 4.98024,-5.99501 -4.80281,5.49335 7.82444,-1.7697 -6.71975,2.61262 6.54832,-0.61502 -6.95957,2.88033 6.63114,1.42348 -5.67772,-0.52733 5.25311,4.00634 -6.08787,-2.968 z"
       inkscape:transform-center-x="-0.22834602"
       inkscape:transform-center-y="-0.41034745"
       transform="translate(-33.611681,-87.567088)" />
    <path
       sodipodi:type="star"
       style="fill:none;fill-opacity:1;stroke:#ffffff;stroke-width:20;stroke-dasharray:none;stroke-opacity:1"
       id="path8678"
       inkscape:flatsided="false"
       sodipodi:sides="15"
       sodipodi:cx="228.65695"
       sodipodi:cy="429.97427"
       sodipodi:r1="12.694986"
       sodipodi:r2="3.5545974"
       sodipodi:arg1="1.5707963"
       sodipodi:arg2="1.7802358"
       inkscape:rounded="0"
       inkscape:randomized="0.1"
       d="m 229.42312,443.46342 -0.7508,-8.80661 -5.16128,6.85973 2.07183,-9.45143 -5.96713,6.15461 5.515,-5.8988 -7.96194,2.65447 6.88012,-3.67792 -8.14984,-3.85418 10.09209,1.7487 -8.65246,-4.47382 9.23907,3.95922 -4.41569,-8.20273 4.68576,5.19657 0.11743,-7.42385 2.45719,7.00737 2.27507,-8.54686 -2.23823,9.56191 7.56499,-7.74941 -4.88871,8.03196 7.19237,-3.76403 -6.60185,4.86906 7.82742,-0.0458 -8.4137,1.75762 9.48992,4.20896 -10.43021,-2.20716 5.98475,7.44562 -6.51176,-5.16894 2.63075,7.45242 -3.31695,-7.21999 z"
       inkscape:transform-center-x="-0.19590464"
       inkscape:transform-center-y="-0.74433573"
       transform="translate(22.112943,-11.498689)" />
    <path
       sodipodi:type="star"
       style="fill:none;fill-opacity:1;stroke:#ffffff;stroke-width:20;stroke-dasharray:none;stroke-opacity:1"
       id="path8680"
       inkscape:flatsided="false"
       sodipodi:sides="15"
       sodipodi:cx="493.841"
       sodipodi:cy="782.61249"
       sodipodi:r1="13.004755"
       sodipodi:r2="3.6413326"
       sodipodi:arg1="1.3521247"
       sodipodi:arg2="1.5615643"
       inkscape:rounded="0"
       inkscape:randomized="0.1"
       d="m 496.20779,795.05044 -3.07132,-8.11658 -3.07104,8.81705 2.62403,-9.03025 -7.41669,5.98166 5.29054,-7.5376 -7.09884,3.55533 6.95815,-5.17388 -9.22343,1.24006 9.74807,-2.70828 -10.13668,-2.6132 9.23418,1.87153 -4.743,-8.26975 7.47674,7.87003 -4.77853,-10.56466 5.90908,7.96213 -1.0525,-9.1605 1.35319,8.94331 4.9157,-7.81817 -2.08868,9.52228 5.88986,-5.9815 -5.77744,6.48609 9.24678,-1.43923 -9.82042,2.98524 9.45413,1.35754 -8.45849,0.48797 7.96821,5.43553 -9.43936,-3.60395 4.90756,8.21131 -6.55997,-7.9773 z"
       inkscape:transform-center-x="0.15250258"
       inkscape:transform-center-y="0.41896626"
       transform="translate(-30.073546,-49.532888)" />
    <text
       xml:space="preserve"
       style="font-size:3.175px;fill:none;fill-opacity:1;stroke:#ffffff;stroke-width:20;stroke-dasharray:none;stroke-opacity:1"
       x="253.51202"
       y="213.30983"
       id="text8740"><tspan
         sodipodi:role="line"
         id="tspan8738"
         style="stroke-width:20"></tspan></text>
    <text
       xml:space="preserve"
       style="font-style:normal;font-variant:normal;font-weight:normal;font-stretch:normal;font-size:50.8px;font-family:sans-serif;-inkscape-font-specification:sans-serif;fill:none;fill-opacity:1;stroke:#ffffff;stroke-width:20;stroke-dasharray:none;stroke-opacity:1"
       x="383.30405"
       y="264.69955"
       id="text8792"><tspan
         sodipodi:role="line"
         id="tspan8790"
         style="font-style:normal;font-variant:normal;font-weight:normal;font-stretch:normal;font-family:sans-serif;-inkscape-font-specification:sans-serif;stroke-width:20"
         x="383.30405"
         y="264.69955" /></text>
    <text
       xml:space="preserve"
       style="font-style:normal;font-variant:normal;font-weight:normal;font-stretch:normal;font-size:50.8px;font-family:sans-serif;-inkscape-font-specification:sans-serif;fill:none;fill-opacity:1;stroke:#ffffff;stroke-width:20;stroke-dasharray:none;stroke-opacity:1"
       x="466.31815"
       y="-174.08937"
       id="text8796"><tspan
         sodipodi:role="line"
         id="tspan8794"
         style="stroke-width:20"
         x="466.31815"
         y="-174.08937" /></text>
  </g>
</svg>
